<?xml version="1.0" standalone="no"?><!DOCTYPE svg PUBLIC "-//W3C//DTD SVG 1.1//EN" "http://www.w3.org/Graphics/SVG/1.1/DTD/svg11.dtd"><svg t="1488086103752" class="icon" style="" viewBox="0 0 1037 1024" version="1.1" xmlns="http://www.w3.org/2000/svg" p-id="1435" xmlns:xlink="http://www.w3.org/1999/xlink" width="202.5390625" height="200"><defs><style type="text/css"></style></defs><path d="M764.05669 608.164177 536.38641 863.162872l23.188118 32.902364 166.073386 0 295.458175 0L764.05669 608.164177 764.05669 608.164177zM487.423255 896.065236c0 0-10.04375-13.757329-13.529131-19.859303-0.923022-1.63115-1.917676-3.219321-2.836605-4.849448-4.116761-7.368828-8.142447-14.859429-12.017708-22.442128-0.222057-0.435928-0.461511-0.870834-0.701988-1.325182-12.550851-24.710798-23.843034-50.585095-33.991162-76.970022-0.630357-1.682315-1.240247-3.382027-1.870604-5.070482-2.616594-6.934946-5.187139-13.898545-7.629771-20.883633-0.874927-2.52552-1.718131-5.03569-2.595105-7.564279-2.111081-6.167466-4.188392-12.334933-6.201236-18.533099-0.967024-3.000334-1.886977-6.025227-2.837628-9.049097-1.77032-5.689582-3.538593-11.381212-5.206582-17.048281-46.475498-157.039639-56.33096-245.172909-50.421366-270.478248 0.387833-1.681292 0.487094-3.726881 0.387833-6.031367 23.280216-2.563382 57.909921-2.446725 98.56997 3.746324 58.681494 8.958022 130.61378 50.034557 138.104381 35.46063 3.873214-7.492648-54.757115-72.219835-102.398158-92.578512 61.057611-9.485025 114.530476-4.220115 147.363256-3.479241 18.781762 0.433882 37.556361 2.447748 40.367383-0.265036 5.906523-5.713119-30.04427-27.2926-55.145971-35.363416-17.901719-5.783727-57.855686-21.462824-119.596865-7.224542-57.08309 13.156648-108.935038 43.357484-137.544633 62.323441 0.310062-0.766456 0.602727-1.416256 0.913812-2.234901 34.753525-92.096535 121.901351-122.394584 161.560606-142.701073 14.588253-7.445576 30.485315-13.300934 30.336936-17.145495-0.361227-8.089235-45.74281-14.211676-71.546499-11.641131-18.436908 1.825578-61.85579 3.168156-96.556103 42.97272-14.70491 16.906042-25.532513 36.855396-33.525558 56.492642-2.721994-37.504172-10.353812-82.272795-30.293957-117.258611-32.9259-57.811684-95.580892-57.259098-105.299231-56.728002-9.737782 0.527003-7.556093 23.529903 2.693342 53.514821 10.244318 29.960359 29.701462 55.649438 53.44319 97.931426 7.687076 13.685697 18.295692 31.784914 29.052686 50.034557-18.243503-21.060665-42.374086-43.38716-71.160713-57.000202-47.904033-22.665209-88.220251-6.604418-105.806791-0.960885-24.695448 7.92653-63.744813 31.571043-60.816111 39.108716 1.400906 3.602038 18.3663 2.642177 34.701336 3.674693 44.597731 2.802836 136.669706-4.110621 205.820646 66.432015 0.921999 0.934279 1.721201 1.699712 2.615571 2.565429-33.024138-12.104689-86.906326-28.066219-141.861962-28.40391-63.382563-0.3776-98.853425 23.632233-115.040083 33.180703-22.675442 13.373589-52.915164 42.283012-45.890166 46.554292 3.342118 2.039449 21.175275-4.057409 39.400359-8.569166 49.183166-12.17939 143.798057-45.734624 252.995061-20.527522-32.752961 6.744611-76.099189 25.084305-101.277638 73.944106-22.896476 44.481074-7.822153 149.549038 1.331321 151.562904 16.114003 3.557012 29.973662-77.549214 60.383252-128.056538 22.169929-36.808324 45.307905-64.250326 62.431911-80.098269-7.724938 153.008836 8.408507 215.747739 32.013111 317.66699l0.020466 0.020466c8.770757 37.842887 18.559705 71.925123 28.570709 102.230336 0.1361 0.453325 0.313132 0.909719 0.427742 1.388627 1.842974 5.500271 3.686972 10.875698 5.506411 16.111956 0.212848 0.580215 0.382717 1.125637 0.576121 1.677199 1.86958 5.256724 12.899798 31.745005 12.899798 31.745005L487.423255 896.064212 487.423255 896.065236 487.423255 896.065236zM371.935987 386.863978c2.688225-0.961908 66.802452-23.093974 112.084775 4.225231 2.441609 1.467421 3.220345 4.634554 1.746784 7.05672-0.973164 1.609661-2.694365 2.472308-4.441149 2.472308-0.914836 0-1.861394-0.239454-2.686179-0.73985-41.139979-24.806989-102.632495-3.532453-103.21578-3.316535-2.714831 0.934279-5.669116-0.455371-6.637164-3.123131C367.819227 390.753565 369.223203 387.823839 371.935987 386.863978L371.935987 386.863978zM272.185122 441.650769c-0.511653 0.36225-50.396807 36.713156-60.134589 85.49314-0.487094 2.448772-2.642177 4.155646-5.063319 4.155646-0.337691 0-0.682545-0.028653-1.027399-0.100284-2.829442-0.551562-4.646833-3.26537-4.088108-6.02318 10.543124-52.843532 62.024635-90.295516 64.230883-91.855034 2.298346-1.655709 5.550413-1.154289 7.247054 1.149173C275.017634 436.780855 274.484492 439.995059 272.185122 441.650769L272.185122 441.650769zM322.68119 347.872942l-0.26606 0c-2.765997 0-5.037736-2.162246-5.186116-4.894474-4.628414-95.271854-71.14127-171.423231-71.788-172.190711-1.89721-2.140757-1.702782-5.380544 0.453325-7.250124 2.182712-1.86958 5.427616-1.682315 7.322779 0.480954 2.830465 3.193739 69.556169 79.636758 74.379011 178.452321C327.738369 345.30956 325.538261 347.729679 322.68119 347.872942L322.68119 347.872942zM211.56344 896.065236l134.131907 0c-21.35333-32.948413-30.694069-60.667731-43.347251-106.210997L211.56344 896.065236 211.56344 896.065236zM442.811198 641.588427c14.100136 76.277244 15.039531 114.112967 53.758368 176.630836l0.390903-0.408299 156.554592-184.427406L549.793768 512.699941 442.811198 641.588427 442.811198 641.588427zM442.811198 641.588427" p-id="1436" fill="#1afa29"></path></svg>